<?xml version="1.0" encoding="utf-8"?>
<!-- Generator: Adobe Illustrator 16.0.0, SVG Export Plug-In . SVG Version: 6.00 Build 0)  -->
<!DOCTYPE svg PUBLIC "-//W3C//DTD SVG 1.1//EN" "http://www.w3.org/Graphics/SVG/1.1/DTD/svg11.dtd">
<svg version="1.1" id="Capa_1" xmlns="http://www.w3.org/2000/svg" xmlns:xlink="http://www.w3.org/1999/xlink" x="0px" y="0px"
	 width="60px" height="60px" viewBox="254.416 445.663 60 60" enable-background="new 254.416 445.663 60 60" xml:space="preserve">
<g>
	<path id="bloger" fill="#FCEE21" d="M301.07,473.003c-0.224-2.684-1.79-2.684-2.833-2.833c-1.044-0.15-3.728,0.074-3.952,0
		c-0.298-0.075-0.298-5.219-0.447-6.859c-0.149-1.641-2.087-3.057-4.995-3.802c-2.907-0.746-8.722-0.895-12.002-0.596
		c-3.28,0.298-5.815,1.491-7.231,2.833c-0.671,0.597-1.939,2.386-2.088,3.579c-0.074,1.193,0.074,7.604,0.298,12.301
		c0.224,4.696,0.746,8.424,1.491,10.735c0.745,2.311,1.267,2.609,3.28,3.579c2.014,1.043,6.859,1.342,10.214,1.416
		c3.354,0,8.648,0.075,12.673-2.012c4.026-2.088,5.219-5.591,5.517-6.934C301.443,483.067,301.294,475.762,301.07,473.003z
		 M300.623,478.967c-0.149-0.224-1.64-2.684-1.938-2.907c-0.373-0.224-0.447,0.298-0.223,0.521c0.223,0.224,2.087,2.759,2.162,3.057
		c0.075,0.224,0,2.088-0.075,2.013c-0.074-0.075-2.385-3.802-2.684-3.951c-0.224-0.149-0.596,0.074-0.373,0.447
		c0.298,0.373,2.833,3.653,2.908,4.025c0.075,0.373-0.224,2.312-0.298,2.087c-0.075-0.224-2.46-4.1-2.685-4.174
		c-0.223-0.149-0.446,0-0.446,0.149c0.074,0.149,2.907,4.398,2.907,4.547s-0.447,1.268-0.671,1.044
		c-0.224-0.224-2.013-3.653-2.311-3.653c-0.298,0-0.597,0.074-0.373,0.447c0.149,0.373,2.311,3.503,2.311,3.578
		s-0.447,1.044-0.746,1.044c-0.224-0.075-1.938-3.28-2.162-3.354c-0.223-0.075-0.596,0.074-0.447,0.298
		c0.074,0.224,2.311,3.578,2.311,3.653s-0.969,1.044-1.118,0.97c-0.149-0.15-1.938-3.802-2.162-3.802
		c-0.224,0-0.522,0.149-0.373,0.298c0.149,0.224,2.087,3.579,2.087,3.728c0,0.149-0.894,0.671-1.043,0.596
		c-0.149-0.074-1.938-3.727-2.162-3.802c-0.224-0.074-0.522,0.075-0.448,0.298c0.075,0.224,2.162,3.728,2.088,3.728
		c-0.075,0-0.746,0.373-0.895,0.373c-0.223-0.075-1.938-3.504-2.162-3.579c-0.224-0.074-0.447,0.224-0.224,0.597
		c0.224,0.447,1.938,3.057,1.864,3.206c-0.149,0.149-1.044,0.298-1.193,0.224c-0.149-0.075-1.789-3.952-2.088-4.026
		c-0.298-0.074-0.446,0.299-0.298,0.746c0.149,0.447,2.087,3.281,1.938,3.355c-0.149,0.149-1.044,0.224-1.193,0.224
		s-2.312-3.728-2.535-3.728c-0.224,0-0.522,0.224-0.373,0.447c0.149,0.224,2.312,3.28,2.088,3.355c-0.224,0.074-1.268,0.149-1.417,0
		c-0.149-0.075-1.192-2.759-1.714-2.982c-0.522-0.224-0.596-0.075-0.522,0.223c0.075,0.373,1.79,2.833,1.565,2.833
		c-0.223,0-0.82,0.075-1.043,0c-0.149-0.074-1.565-3.131-1.789-3.28c-0.224-0.149-0.522,0.075-0.447,0.447
		c0.074,0.298,1.566,2.908,1.566,2.908s-0.672,0.075-0.821,0s-1.491-2.833-1.64-2.908c-0.224-0.074-0.597,0.149-0.522,0.298
		c0,0.149,1.715,2.609,1.565,2.684c-0.148,0.075-0.969,0.075-1.192-0.075c-0.149-0.075-1.268-2.758-1.565-2.833
		c-0.298-0.075-0.671,0.224-0.522,0.373s1.565,2.46,1.416,2.46c-0.148,0-0.969-0.075-1.043-0.075c-0.075,0-1.119-2.535-1.342-2.535
		s-0.521,0.224-0.447,0.373c0.075,0.149,1.119,2.013,0.969,2.087c-0.148,0.074-0.894,0.074-1.043-0.149
		c-0.149-0.223-0.746-2.012-1.044-2.012c-0.298-0.075-0.522,0.074-0.522,0.298c0,0.149,1.044,1.789,0.969,1.789
		s-1.118-0.075-1.267-0.149c-0.149-0.149-0.671-1.715-0.969-1.79c-0.298-0.074-0.597,0.075-0.522,0.224
		c0.074,0.149,0.895,1.417,0.745,1.491c-0.149,0-2.907-0.447-4.025-1.342c-1.119-0.895-2.609-2.908-3.206-4.92
		c-0.597-2.013-1.118-8.797-1.118-12.375s0-6.858,0.298-7.604c0.298-0.746,1.193-1.864,1.789-2.46
		c0.746-0.746,2.982-1.715,5.442-2.237c2.46-0.522,6.561-0.298,9.841,0c3.28,0.298,5.964,0.969,6.709,2.46
		c0.746,1.491,0.671,1.715,0.746,2.609c0,0.895,0.075,1.491,0.075,1.491s-0.671-1.342-0.97-1.118
		c-0.298,0.223-0.298,0.447-0.074,0.67c0.149,0.224,1.192,1.715,1.192,1.938c0,0.223-0.298,2.758,0.373,2.908
		c0.671,0.149,3.429-0.075,4.473,0c1.044,0.149,1.938,0.521,2.087,2.013c0.149,1.491,0.224,2.46,0.149,2.46
		c-0.075-0.074-0.969-1.193-1.119-1.118c-0.149,0.075-0.298,0.224-0.149,0.298c0.149,0.149,1.193,1.193,1.268,1.417
		C300.399,476.134,300.772,479.19,300.623,478.967z M275.126,471.885c0.597,0.224,1.715,0.075,5.517-0.373
		c3.802-0.447,6.188-0.447,6.636-0.521c0.447-0.075,0.596-0.298,0.521-0.97c-0.074-0.671-0.298-2.236-1.043-3.28
		c-0.746-1.043-3.802-0.671-5.815-0.373c-2.013,0.298-5.666,0.969-5.815,1.342C273.934,469.648,274.53,471.586,275.126,471.885z
		 M276.618,469.275c0.149-0.224,3.131-0.969,5.591-1.193c2.46-0.223,4.175-0.223,4.398,0c0.224,0.225,0.373,0.896,0.373,1.268
		c0,0.373,0.224,0.746,0.224,0.895s-0.075,0.074-0.746,0.074c-0.67,0.075-2.758-0.148-5.293,0.298
		c-2.535,0.373-2.982,0.447-3.728,0.447c-0.746,0-0.746,0.149-0.895,0C276.394,470.916,276.469,469.5,276.618,469.275z
		 M294.212,479.415c-0.149,0-0.373-0.373-0.448-0.671s-1.565-2.535-1.714-2.758c-0.149-0.223-0.671-0.448-0.746-0.075
		s1.715,2.46,1.789,2.609c0.075,0.149-0.596,0-1.043,0c-0.373,0-1.789-2.758-2.236-3.131c-0.373-0.373-0.746-0.075-0.597,0.224
		c0.149,0.373,2.311,2.758,2.311,2.833c0,0.149-1.118,0.149-1.342,0.075c-0.224-0.075-2.013-3.057-2.311-3.206
		c-0.298-0.149-0.746,0.149-0.522,0.373c0.224,0.223,2.237,2.684,2.386,2.907s-1.342,0-1.864-0.075
		c-0.447-0.075-2.013-3.206-2.386-3.504c-0.373-0.373-0.895,0-0.746,0.224c0.149,0.149,2.535,3.206,2.609,3.28
		c0.149,0.075-1.193,0.149-1.565,0.075c-0.373-0.075-2.088-3.28-2.312-3.504c-0.149-0.224-0.597,0.075-0.522,0.298
		s2.237,2.982,2.386,3.131s-1.491,0.075-1.64,0.075c-0.149,0-1.64-2.833-1.938-3.057c-0.298-0.148-0.522,0.15-0.596,0.373
		c0,0.224,2.013,2.609,2.087,2.758c0.075,0.149-1.268,0.149-1.491,0.075s-1.267-2.087-1.491-2.385
		c-0.149-0.224-0.746,0.075-0.746,0.149s1.64,2.162,1.789,2.236c0.149,0.075-1.043,0.149-1.268,0.075
		c-0.223-0.075-1.043-2.087-1.342-2.311c-0.224-0.224-0.596-0.074-0.596,0.074c-0.075,0.149,1.342,2.087,1.491,2.237
		c0.149,0.149-0.821,0.075-1.119,0.075c-0.298,0-1.043-1.417-1.193-1.715c-0.149-0.298-0.521-0.224-0.671-0.149
		c-0.149,0.074,0.895,1.714,0.969,1.789c0.149,0.149-1.417,0.075-1.565,0.075s-0.82-1.417-0.82-1.491
		c0-0.075-0.298-0.149-0.373,0.074c-0.149,0.224,0.895,1.491,0.895,1.491s-1.043,0.149-1.342,0.448
		c-0.298,0.298-0.373,1.268-0.373,2.609c0,1.864,1.267,2.162,3.057,2.236c1.789,0.149,12.3,0.075,14.015,0
		c1.715-0.074,2.087-0.074,3.057-1.043c0.969-0.895,0.82-2.46,0.969-3.131C295.255,479.712,294.361,479.415,294.212,479.415z
		 M293.392,482.993c-0.596,0.746-1.267,0.82-3.43,0.895c-2.162,0-6.709,0-9.542,0s-3.354,0-3.43-0.075
		c-0.075-0.075,0-1.491,0.149-1.715c0.149-0.298,2.907-1.118,4.697-1.193c1.789-0.075,4.92,0,6.412-0.223
		c1.565-0.224,3.131-0.374,4.398-0.374c1.192,0,1.565,0.149,1.565,0.374C294.212,480.905,293.988,482.247,293.392,482.993z
		 M269.759,473.599c-0.224,0.149,0,5.368,0.149,5.442s0.447-0.075,0.522-0.298c0.075-0.149,0.149-4.547,0-4.995
		C270.355,473.301,269.982,473.45,269.759,473.599z M274.307,463.088c0-0.149,0.149-0.522-0.522-0.373
		c-0.671,0.148-2.311,0.969-3.057,2.311c-0.82,1.342-0.746,2.908-0.447,3.131c0.224,0.298,0.447,0.298,0.671,0.149
		c0.224-0.149,0-1.491,0.671-2.908c0.671-1.416,1.938-1.714,2.311-1.789C274.232,463.535,274.307,463.237,274.307,463.088z
		 M290.186,463.088c0.969,0.373,1.043,1.789,1.268,2.087c0.224,0.298,0.82-0.298,0.745-0.671c-0.074-0.373-0.373-1.118-1.267-1.939
		c-0.895-0.82-2.609-1.043-2.908-0.895c-0.298,0.224-0.298,0.522-0.149,0.597C287.95,462.342,289.217,462.641,290.186,463.088z
		 M291.006,466.591c-0.298,0.448,1.416,2.982,1.565,3.28c0.149,0.299,0.448-0.074,0.373-0.224c-0.074-0.223-1.267-2.684-1.417-2.833
		C291.379,466.666,291.081,466.368,291.006,466.591z M290.41,468.307c-0.746,0.223,0.82,2.087,1.193,2.46
		c0.298,0.298,0.373,0.075,0.447-0.075C292.05,470.468,290.708,468.232,290.41,468.307z"/>
	<circle fill="none" stroke="#FCEE21" stroke-width="4" stroke-miterlimit="10" cx="284.416" cy="475.663" r="27.5"/>
</g>
</svg>
