<?xml version="1.0" encoding="utf-8"?>
<!-- Generator: Adobe Illustrator 16.0.0, SVG Export Plug-In . SVG Version: 6.00 Build 0)  -->
<!DOCTYPE svg PUBLIC "-//W3C//DTD SVG 1.1//EN" "http://www.w3.org/Graphics/SVG/1.1/DTD/svg11.dtd">
<svg version="1.1" id="Layer_1" xmlns="http://www.w3.org/2000/svg" xmlns:xlink="http://www.w3.org/1999/xlink" x="0px" y="0px"
	 width="67px" height="100px" viewBox="-3.5 -20 67 100" enable-background="new -3.5 -20 67 100" xml:space="preserve">
<g>
	<g id="XMLID_30_">
		<g>
			<rect x="22.824" y="63.157" fill="#546A79" width="15.166" height="10.527"/>
			<polygon fill="#AFB6BB" points="42.325,54.736 42.325,63.157 37.99,63.157 22.824,63.157 18.491,63.157 18.491,54.736 			"/>
			<rect x="18.491" y="47.367" fill="#E7ECED" width="23.834" height="7.369"/>
			<path fill="#FFD248" d="M60.739,11.579c0,12.167-7.581,22.61-18.414,27.115v8.673H18.491v-8.673
				C7.657,34.189,0.074,23.747,0.074,11.579c0-16.274,13.584-29.473,30.333-29.473S60.739-4.695,60.739,11.579z"/>
			<path fill="#FECA47" d="M50.989,11.579c0,11.046-9.213,20-20.582,20c-11.366,0-20.583-8.954-20.583-20
				c0-11.045,9.217-20,20.583-20C41.776-8.421,50.989,0.534,50.989,11.579z"/>
		</g>
		<g>
			<path fill="#231F20" d="M30.407-20c-17.921,0-32.5,14.167-32.5,31.579c0,12.194,7.182,23.221,18.417,28.472v23.106
				c0,1.163,0.97,2.107,2.167,2.107h2.167v8.42c0,1.161,0.97,2.105,2.167,2.105h5.417V80h4.333v-4.21h5.416
				c1.199,0,2.166-0.944,2.166-2.105v-8.42h2.169c1.194,0,2.165-0.944,2.165-2.107V40.051C55.725,34.8,62.907,23.773,62.907,11.579
				C62.907-5.833,48.327-20,30.407-20z M20.657,49.473h19.499v3.159H20.657V49.473z M35.824,71.58H24.991v-6.315h10.833V71.58z
				 M40.156,61.052H37.99H22.824h-2.167v-4.208h19.499V61.052z M41.471,36.758c-0.797,0.333-1.314,1.095-1.314,1.937v6.57H20.657
				v-6.57c0-0.842-0.518-1.604-1.314-1.935C8.954,32.439,2.241,22.556,2.241,11.579c0-15.091,12.635-27.369,28.167-27.369
				S58.574-3.512,58.574,11.579C58.574,22.556,51.861,32.439,41.471,36.758z"/>
			<path fill="#231F20" d="M37.99,10.526H25.724L35.476-4.12l-3.639-2.287L19.921,11.488c-0.431,0.647-0.463,1.473-0.084,2.15
				c0.379,0.677,1.11,1.099,1.903,1.099h12.836L27.364,29.63l3.92,1.793l8.668-17.895c0.315-0.651,0.264-1.416-0.133-2.023
				C39.423,10.896,38.732,10.526,37.99,10.526z"/>
			<rect x="8.74" y="10.526" fill="#231F20" width="4.333" height="4.211"/>
			<rect x="47.741" y="10.526" fill="#231F20" width="4.331" height="4.211"/>
		</g>
	</g>
</g>
</svg>
