<?xml version="1.0" encoding="utf-8"?>
<!-- Generator: Adobe Illustrator 16.0.0, SVG Export Plug-In . SVG Version: 6.00 Build 0)  -->
<!DOCTYPE svg PUBLIC "-//W3C//DTD SVG 1.1//EN" "http://www.w3.org/Graphics/SVG/1.1/DTD/svg11.dtd">
<svg version="1.1" xmlns="http://www.w3.org/2000/svg" xmlns:xlink="http://www.w3.org/1999/xlink" x="0px" y="0px" width="800px"
	 height="400px" viewBox="0 0 800 400" enable-background="new 0 0 800 400" xml:space="preserve">
<g id="back">
</g>
<g id="Layer_1">
	<rect fill="#DADFE0" width="800" height="400"/>
	<g>
		<g>
			
				<text transform="matrix(1.0057 0 0 1 55 220.5234)" font-family="'OstrichSans-Black'" font-size="14.016" letter-spacing="1.989">Clients/Employer</text>
			<line stroke="#CFD1D2" stroke-miterlimit="10" x1="55" y1="224.5" x2="360" y2="224.5"/>
		</g>
		<line stroke="#23292A" stroke-width="0.7394" stroke-miterlimit="10" x1="87.778" y1="234.737" x2="87.778" y2="352.803"/>
		<path d="M89.871,259.383c0,1.334-0.941,2.41-2.097,2.41c-1.16,0-2.095-1.076-2.095-2.41c0-1.326,0.935-2.408,2.095-2.408
			C88.93,256.975,89.871,258.057,89.871,259.383z"/>
		<path d="M89.993,241.642c0,1.334-0.941,2.41-2.097,2.41c-1.16,0-2.095-1.076-2.095-2.41c0-1.326,0.935-2.408,2.095-2.408
			C89.052,239.233,89.993,240.315,89.993,241.642z"/>
		<ellipse cx="87.898" cy="278.204" rx="2.095" ry="2.407"/>
		<path d="M89.871,300.566c0,1.334-0.939,2.412-2.097,2.412c-1.156,0-2.095-1.078-2.095-2.412c0-1.325,0.939-2.408,2.095-2.408
			C88.932,298.158,89.871,299.241,89.871,300.566z"/>
		<path d="M89.993,324.504c0,1.333-0.938,2.41-2.097,2.41c-1.155,0-2.094-1.077-2.094-2.41c0-1.328,0.939-2.409,2.094-2.409
			C89.055,322.095,89.993,323.176,89.993,324.504z"/>
		<ellipse cx="87.898" cy="346.425" rx="2.095" ry="2.41"/>
		<g>
			<text transform="matrix(1.0057 0 0 1 98.3096 328.6709)" font-family="'OstrichSans-Black'" font-size="13.0767">Public Health Foundation of India (New Delhi)</text>
		</g>
		<g>
			<text transform="matrix(1.0057 0 0 1 98.6221 304.9551)" font-family="'OstrichSans-Black'" font-size="13.0767">SBL Technologies (KOCHI)</text>
		</g>
		<g>
			<text transform="matrix(1.0057 0 0 1 98.6211 283.1611)" font-family="'OstrichSans-Black'" font-size="13.0767">Nextgen Technologies (Chandigarh)</text>
		</g>
		<g>
			<text transform="matrix(1.0057 0 0 1 98.3096 263.2695)" font-family="'OstrichSans-Black'" font-size="13.0767">Accenture </text>
		</g>
		<g>
			<text transform="matrix(1.0057 0 0 1 98.6221 246.5078)" font-family="'OstrichSans-Black'" font-size="13.0767">SITEG (Govt. of Himachal Pradesh) </text>
		</g>
		<g>
			<text transform="matrix(1.0057 0 0 1 98.3096 349.8027)" font-family="'OstrichSans-Black'" font-size="13.0767">Chitkara University (Himachal Pradesh)</text>
		</g>
	</g>
	<g>
		<g>
			
				<text transform="matrix(1.0057 0 0 1 55 28.5234)" font-family="'OstrichSans-Black'" font-size="14.016" letter-spacing="1.989">Indrustry Lines</text>
			<line stroke="#CFD1D2" stroke-miterlimit="10" x1="55" y1="32.5" x2="360" y2="32.5"/>
		</g>
		<g>
			<line stroke="#23292A" stroke-width="0.7394" stroke-miterlimit="10" x1="87.778" y1="42.737" x2="87.778" y2="138.29"/>
			<path d="M89.871,53.383c0,1.334-0.941,2.41-2.097,2.41c-1.16,0-2.095-1.076-2.095-2.41c0-1.326,0.935-2.408,2.095-2.408
				C88.93,50.975,89.871,52.057,89.871,53.383z"/>
			<ellipse cx="87.898" cy="77.204" rx="2.095" ry="2.407"/>
			<path d="M89.871,102.566c0,1.334-0.939,2.412-2.097,2.412c-1.156,0-2.095-1.078-2.095-2.412c0-1.325,0.939-2.408,2.095-2.408
				C88.932,100.158,89.871,101.241,89.871,102.566z"/>
			<path d="M89.993,124.504c0,1.333-0.938,2.41-2.097,2.41c-1.155,0-2.094-1.077-2.094-2.41c0-1.328,0.939-2.409,2.094-2.409
				C89.055,122.095,89.993,123.176,89.993,124.504z"/>
			<g>
				<g>
					<text transform="matrix(1.0057 0 0 1 98.3096 129.6709)" font-family="'OstrichSans-Black'" font-size="13.0767">Automobiles</text>
				</g>
				<g>
					<text transform="matrix(1.0057 0 0 1 98.6221 106.9546)" font-family="'OstrichSans-Black'" font-size="13.0767">Health Care</text>
				</g>
				<g>
					<text transform="matrix(1.0057 0 0 1 98.6211 81.1611)" font-family="'OstrichSans-Black'" font-size="13.0767">Infrastructure</text>
				</g>
				<g>
					<text transform="matrix(1.0057 0 0 1 98.3096 58.269)" font-family="'OstrichSans-Black'" font-size="13.0767">eGoverence </text>
				</g>
			</g>
		</g>
	</g>
	<g>
		
			<line fill="none" stroke="#23292A" stroke-width="0.7394" stroke-miterlimit="10" x1="390.19" y1="234.737" x2="390.19" y2="369.175"/>
		<ellipse fill="#23292A" cx="390.185" cy="250.635" rx="1.914" ry="1.903"/>
		<ellipse fill="#23292A" cx="390.185" cy="268.126" rx="1.914" ry="1.903"/>
		
			<text transform="matrix(1.0057 0 0 1 383.4624 219.501)" fill="#23292A" font-family="'OstrichSans-Black'" font-size="12.7949" letter-spacing="1.989">Enganement Experience</text>
		<line fill="none" stroke="#CFD1D2" stroke-miterlimit="10" x1="378" y1="226.5" x2="664" y2="226.5"/>
	</g>
	<g>
		<line fill="none" stroke="#CFD1D2" stroke-miterlimit="10" x1="368" y1="32.5" x2="654" y2="32.5"/>
		<ellipse fill="#23292A" cx="383.179" cy="51.705" rx="1.914" ry="1.903"/>
		
			<text transform="matrix(1.0057 0 0 1 373.8677 25.6733)" fill="#23292A" font-family="'OstrichSans-Black'" font-size="12.7949" letter-spacing="1.989">Awards/Certifications</text>
		<g>
			<g>
				
					<line fill="none" stroke="#23292A" stroke-width="0.7394" stroke-miterlimit="10" x1="383.185" y1="41.298" x2="383.185" y2="192"/>
				<ellipse fill="#23292A" cx="383.185" cy="86.652" rx="1.914" ry="1.903"/>
				<ellipse fill="#23292A" cx="383.19" cy="120.954" rx="1.914" ry="1.903"/>
				<ellipse fill="#23292A" cx="383.179" cy="153.5" rx="1.914" ry="1.903"/>
				<ellipse fill="#23292A" cx="383.179" cy="175.411" rx="1.914" ry="1.903"/>
			</g>
			<g>
				<text transform="matrix(1 0 0 1 392.5313 90.333)"><tspan x="0" y="0" font-family="'MyriadPro-Regular'" font-size="12">Microsoft Imagine Cup National Finalist (Embedded Category) </tspan><tspan x="0" y="14.4" font-family="'MyriadPro-Regular'" font-size="12">Team SOCH</tspan></text>
				<text transform="matrix(1 0 0 1 392.6895 122.6709)"><tspan x="0" y="0" font-family="'MyriadPro-Regular'" font-size="12">Microsoft Imagine Cup (Software Category) </tspan><tspan x="0" y="14.4" font-family="'MyriadPro-Regular'" font-size="12">Team Becon of Hope</tspan></text>
				<text transform="matrix(1 0 0 1 391.7461 53.1177)"><tspan x="0" y="0" font-family="'MyriadPro-Regular'" font-size="12">Awarded by the Govt. of Himachal Pradesh, India  </tspan><tspan x="0" y="14.4" font-family="'MyriadPro-Regular'" font-size="12">(Developing and Implementing India’s first eVIDHAN system)</tspan></text>
				<text transform="matrix(1 0 0 1 393.6895 157.6895)" font-family="'MyriadPro-Regular'" font-size="12">C/C++ Programing (Lynda.com)</text>
				<text transform="matrix(1 0 0 1 393.689 179.8965)" font-family="'MyriadPro-Regular'" font-size="12">Founations of Programming (Lynda.com)</text>
			</g>
		</g>
	</g>
</g>
</svg>
