<?xml version="1.0" encoding="utf-8"?>
<!-- Generator: Adobe Illustrator 16.0.0, SVG Export Plug-In . SVG Version: 6.00 Build 0)  -->
<!DOCTYPE svg PUBLIC "-//W3C//DTD SVG 1.1//EN" "http://www.w3.org/Graphics/SVG/1.1/DTD/svg11.dtd">
<svg version="1.1" id="Layer_1" xmlns="http://www.w3.org/2000/svg" xmlns:xlink="http://www.w3.org/1999/xlink" x="0px" y="0px"
	 width="80px" height="80px" viewBox="360 110 80 80" enable-background="new 360 110 80 80" xml:space="preserve">
<rect x="360" y="110" fill="#7E8384" width="80" height="80"/>
<g>
	<path fill="#FFFFFF" d="M400,111c-21.538,0-39,17.462-39,39c0,21.539,17.462,39,39,39c21.537,0,39-17.461,39-39
		C439,128.462,421.537,111,400,111z M410.926,179.711c-0.225-3.053-0.477-6.834-0.49-8.363c-0.098-1.176-0.225-4.164-3.063-6.072
		c11.264-0.943,16.625-7.168,17.01-15.395c0.32-4.685-1.541-8.805-4.848-12.129c0.168-3.556-0.107-7.771-0.338-9.623
		c-2.539-0.731-8.463,2.396-10.117,3.734c-3.49-1.355-12.034-1.83-17.226,0c-3.681-2.589-7.871-4.188-10.155-3.742
		c-2.108,4.673-0.753,9.09-0.341,9.616c-2.715,2.481-6.503,5.536-5.475,11.934c1.65,9.382,8.251,14.442,18.878,15.681
		c-2.267,0.463-2.649,2.154-2.839,2.889c-7.137,2.943-9.177-1.818-10.079-3.061c-2.996-3.707-5.685-2.631-5.85-2.572
		c-0.161,0.057-0.282,0.291-0.265,0.402c0.151,0.801,1.781,1.613,1.862,1.678c2.211,1.648,3.03,4.625,3.534,5.473
		c3.171,5.215,10.542,3.053,10.613,3.096c0.005,0.455-0.051,4.293-0.095,7.277c-13.44-3.67-23.329-15.93-23.329-30.533
		c0-17.501,14.186-31.687,31.687-31.687c17.5,0,31.688,14.186,31.688,31.687C431.688,163.656,423.035,175.256,410.926,179.711z"/>
</g>
</svg>
