<?xml version="1.0" encoding="utf-8"?>
<!-- Generator: Adobe Illustrator 16.0.0, SVG Export Plug-In . SVG Version: 6.00 Build 0)  -->
<!DOCTYPE svg PUBLIC "-//W3C//DTD SVG 1.1//EN" "http://www.w3.org/Graphics/SVG/1.1/DTD/svg11.dtd">
<svg version="1.1" id="Layer_1" xmlns="http://www.w3.org/2000/svg" xmlns:xlink="http://www.w3.org/1999/xlink" x="0px" y="0px"
	 width="60px" height="60px" viewBox="0 0 60 60" enable-background="new 0 0 60 60" xml:space="preserve">
<g>
	<path fill="#73D0F4" d="M29.999,60C13.458,60,0,46.543,0,30S13.458,0,29.999,0C46.541,0,60,13.457,60,30S46.541,60,29.999,60z
		 M29.999,3.599c-14.556,0-26.4,11.846-26.4,26.401c0,14.557,11.845,26.401,26.4,26.401C44.557,56.401,56.4,44.556,56.4,30
		C56.399,15.444,44.557,3.599,29.999,3.599z"/>
</g>
<path fill="none" d="M16.034,22.571v23.454h8.676v-13.92c0-0.717,0.582-1.298,1.298-1.298h7.984c0.717,0,1.298,0.582,1.298,1.298
	v13.92h8.677V22.572L30,13.012L16.034,22.571z"/>
<path fill="#73D0F4" d="M51.868,24.834l-5.306-3.632v-9.293c0-0.717-0.581-1.298-1.298-1.298h-6.322
	c-0.717,0-1.298,0.582-1.298,1.298v3.189c0,0-6.813-4.668-6.902-4.73c-0.43-0.299-1.018-0.313-1.476,0L8.131,24.834
	c-0.592,0.404-0.743,1.212-0.338,1.804c0.251,0.367,0.658,0.565,1.072,0.565c0.252,0,0.508-0.074,0.732-0.227l3.84-2.628v22.974
	c0,0.717,0.581,1.298,1.298,1.298h30.528c0.718,0,1.299-0.581,1.299-1.298V24.348l3.84,2.628c0.225,0.154,0.479,0.227,0.731,0.227
	c0.415,0,0.821-0.197,1.072-0.564C52.611,26.047,52.46,25.239,51.868,24.834z M32.695,46.025h-5.389V33.403h5.389V46.025z
	 M43.967,46.025H35.29v-13.92c0-0.717-0.581-1.298-1.298-1.298h-7.984c-0.716,0-1.298,0.582-1.298,1.298v13.92h-8.676V22.571
	L30,13.012l13.967,9.56V46.025L43.967,46.025z M43.967,19.426l-3.727-2.55v-3.668h3.727V19.426z"/>
</svg>
