<?xml version="1.0" encoding="utf-8"?>
<!-- Generator: Adobe Illustrator 16.0.0, SVG Export Plug-In . SVG Version: 6.00 Build 0)  -->
<!DOCTYPE svg PUBLIC "-//W3C//DTD SVG 1.1//EN" "http://www.w3.org/Graphics/SVG/1.1/DTD/svg11.dtd">
<svg version="1.1" id="Layer_1" xmlns="http://www.w3.org/2000/svg" xmlns:xlink="http://www.w3.org/1999/xlink" x="0px" y="0px"
	 width="80px" height="80px" viewBox="0 0 80 80" enable-background="new 0 0 80 80" xml:space="preserve">
<g>
	<rect fill="#7E8384" width="80" height="80"/>
	<path fill="#FFFFFF" d="M53.805,17.495H26.193c-4.797,0-8.697,3.901-8.697,8.696v27.615c0,4.799,3.902,8.697,8.697,8.697h27.614
		c4.799,0,8.697-3.902,8.697-8.697V26.191C62.505,21.396,58.603,17.495,53.805,17.495z M56.545,22.527l0.985-0.002v7.47
		l-7.525,0.024l-0.023-7.47L56.545,22.527z M40,32.471c6.243,0,7.53,5.859,7.53,7.532c0,4.147-3.38,7.526-7.53,7.526
		c-4.152,0-7.529-3.379-7.529-7.526C32.467,38.33,33.758,32.471,40,32.471z M57.572,53.264c0,2.377-1.934,4.313-4.314,4.313h-26.6
		c-2.381,0-4.315-1.934-4.315-4.313V34.99h6.25c-0.579,1.427-0.907,3.377-0.907,5.012c0,6.786,5.521,12.309,12.308,12.309
		c6.788,0,12.306-5.522,12.306-12.309c0-1.635-0.328-3.585-0.905-5.012h6.176v18.271h0.003V53.264z"/>
</g>
</svg>
