<?xml version="1.0" encoding="utf-8"?>
<!-- Generator: Adobe Illustrator 16.0.0, SVG Export Plug-In . SVG Version: 6.00 Build 0)  -->
<!DOCTYPE svg PUBLIC "-//W3C//DTD SVG 1.1//EN" "http://www.w3.org/Graphics/SVG/1.1/DTD/svg11.dtd">
<svg version="1.1" id="Layer_1" xmlns="http://www.w3.org/2000/svg" xmlns:xlink="http://www.w3.org/1999/xlink" x="0px" y="0px"
	 width="120px" height="80px" viewBox="-30 -10 120 80" enable-background="new -30 -10 120 80" xml:space="preserve">
<path fill="#546A79" d="M66.402,22.511C64.25,4.202,48.773-10,30-10C11.226-10-4.251,4.202-6.401,22.511
	C-19.434,22.511-30,33.143-30,46.256C-30,59.368-19.436,70-6.402,70h72.805C79.436,70,90,59.368,90,46.256
	C90,33.143,79.434,22.511,66.402,22.511z M26.728,46.3l-5.837,5.872L2.84,34.009l18.051-18.164l5.837,5.873L14.513,34.009
	L26.728,46.3z M39.109,52.172L33.273,46.3l12.215-12.291L33.273,21.717l5.836-5.873L57.16,34.009L39.109,52.172z"/>
</svg>
