<?xml version="1.0" encoding="utf-8"?>
<!-- Generator: Adobe Illustrator 16.0.0, SVG Export Plug-In . SVG Version: 6.00 Build 0)  -->
<!DOCTYPE svg PUBLIC "-//W3C//DTD SVG 1.1//EN" "http://www.w3.org/Graphics/SVG/1.1/DTD/svg11.dtd">
<svg version="1.1" id="Capa_1" xmlns="http://www.w3.org/2000/svg" xmlns:xlink="http://www.w3.org/1999/xlink" x="0px" y="0px"
	 width="80px" height="80px" viewBox="0 0 80 80" enable-background="new 0 0 80 80" xml:space="preserve">
<g>
	<rect fill="#7E8384" width="80" height="80"/>
	<g>
		<path fill="#FFFFFF" d="M19.913,13.3c3.664,0.002,6.686,3.029,6.678,6.711c-0.009,3.856-3.208,6.763-6.723,6.679
			c-3.565,0.071-6.698-2.905-6.697-6.704C13.17,16.302,16.204,13.296,19.913,13.3z"/>
		<path fill="#FFFFFF" d="M23.806,68.992h-7.851c-1.019,0-1.845-0.824-1.845-1.846v-33.49c0-1.018,0.826-1.844,1.845-1.844h7.851
			c1.02,0,1.846,0.826,1.846,1.844v33.49C25.649,68.168,24.824,68.992,23.806,68.992z"/>
		<path fill="#FFFFFF" d="M68.999,43.576c0-7.021-5.691-12.713-12.713-12.713h-2.014c-3.842,0-7.234,1.916-9.275,4.846
			c-0.223,0.318-0.429,0.65-0.618,0.992c-0.065-0.01-0.104-0.014-0.104-0.012v-4.111c0-0.424-0.344-0.766-0.768-0.766h-9.794
			c-0.423,0-0.766,0.342-0.766,0.766v35.648c0,0.422,0.343,0.766,0.766,0.766l10.008,0.002c0.423,0,0.767-0.342,0.767-0.766V47.633
			c0-3.561,2.84-6.516,6.398-6.557c1.817-0.02,3.465,0.707,4.652,1.896c1.172,1.172,1.896,2.791,1.896,4.578v20.68
			c0,0.424,0.344,0.768,0.767,0.768L68.233,69C68.657,69,69,68.656,69,68.234L68.999,43.576L68.999,43.576z"/>
	</g>
</g>
</svg>
