<?xml version="1.0" encoding="utf-8"?>
<!-- Generator: Adobe Illustrator 16.0.0, SVG Export Plug-In . SVG Version: 6.00 Build 0)  -->
<!DOCTYPE svg PUBLIC "-//W3C//DTD SVG 1.1//EN" "http://www.w3.org/Graphics/SVG/1.1/DTD/svg11.dtd">
<svg version="1.1" id="Layer_1" xmlns="http://www.w3.org/2000/svg" xmlns:xlink="http://www.w3.org/1999/xlink" x="0px" y="0px"
	 width="60px" height="60px" viewBox="0 0 60 60" enable-background="new 0 0 60 60" xml:space="preserve">
<g>
	<path fill="#00FF00" d="M27.777,15.804c0-2.063,1.671-3.737,3.736-3.737c2.063,0,3.737,1.673,3.737,3.737
		c0,2.062-1.674,3.735-3.737,3.735C29.448,19.539,27.777,17.866,27.777,15.804z M22.995,28.506c0.449-1.343,2.689-8.967,2.689-8.967
		c-1.343,0-3.285-0.15-5.079,1.345c-1.793,1.495-2.99,4.034-3.288,5.979c-0.298,1.792,1.047,2.39,2.541,2.837
		C21.35,30.15,22.697,29.552,22.995,28.506z M42.565,23.355c-0.263-0.524-0.791-0.81-1.338-0.812v-1.51h-1.495V23.1l-4.172,2.085
		l-3.719-3.845c-0.009-0.007-0.02-0.009-0.031-0.018c-0.213-0.265-0.606-0.49-0.896-0.587l-3.734-0.896l-2.842,9.712
		c-0.296,1.793-0.296,3.137,1.496,4.633l4.931,4.061v8.191c0,0.824,0.667,1.494,1.496,1.494c0.826,0,1.494-0.67,1.494-1.494v-8.967
		c0-0.396-0.157-0.774-0.438-1.055l-0.237-0.235l-3.513-4.538l1.622-6.678l2.984,3.085c0.288,0.298,0.679,0.456,1.077,0.456
		c0.225,0,0.455-0.053,0.665-0.158l3.816-1.905v21.489h1.495V25.693l0.667-0.335C42.633,24.99,42.935,24.093,42.565,23.355z
		 M24.043,33.885l-0.749,4.781c0,0.006,0,0.009,0,0.015l-2.884,7.202c-0.307,0.77,0.067,1.638,0.833,1.945
		c0.184,0.072,0.369,0.104,0.558,0.104c0.591,0,1.153-0.353,1.388-0.938l2.878-7.197c0.096-0.155,0.175-0.33,0.216-0.528l0.6-2.094
		C24.938,35.53,24.043,34.93,24.043,33.885z"/>
</g>
<g>
	<path fill="#00FF00" d="M29.999,60C13.458,60,0,46.543,0,30S13.458,0,29.999,0C46.541,0,60,13.457,60,30S46.541,60,29.999,60z
		 M29.999,3.599c-14.556,0-26.4,11.845-26.4,26.401c0,14.557,11.844,26.401,26.4,26.401c14.558,0,26.401-11.845,26.401-26.401
		C56.399,15.444,44.557,3.599,29.999,3.599z"/>
</g>
</svg>
