<?xml version="1.0" encoding="utf-8"?>
<!-- Generator: Adobe Illustrator 16.0.0, SVG Export Plug-In . SVG Version: 6.00 Build 0)  -->
<!DOCTYPE svg PUBLIC "-//W3C//DTD SVG 1.1//EN" "http://www.w3.org/Graphics/SVG/1.1/DTD/svg11.dtd">
<svg version="1.1" id="Layer_1" xmlns="http://www.w3.org/2000/svg" xmlns:xlink="http://www.w3.org/1999/xlink" x="0px" y="0px"
	 width="140px" height="200px" viewBox="0 0 140 200" enable-background="new 0 0 140 200" xml:space="preserve">
<g>
	<rect fill="#7E8384" width="140" height="201"/>
	<g>
		<path fill="#4B616E" d="M33.364,1h75.271v200H33.364V1z"/>
		<path fill="#E4E7E7" d="M71.006,32.25C109.114,32.25,140,63.031,140,101c0,37.975-30.886,68.75-68.994,68.75
			C32.898,169.749,2,138.975,2,101C2,63.038,32.898,32.25,71.006,32.25z"/>
		<path fill="#4B616E" d="M96.091,94.75H77.273V76c0-3.45-2.806-6.25-6.272-6.25s-6.272,2.8-6.272,6.25v25
			c0,3.457,2.806,6.25,6.272,6.25h25.091c3.467,0,6.273-2.794,6.273-6.25C102.364,97.55,99.558,94.75,96.091,94.75z"/>
		<path fill="#F4B459" d="M71.006,32.25C32.898,32.25,2,63.038,2,101c0,37.975,30.898,68.75,69.006,68.75
			C109.114,169.75,140,138.977,140,101C140,63.038,109.114,32.25,71.006,32.25z M71.006,154.125
			c-29.408,0-53.318-23.824-53.318-53.125s23.91-53.125,53.318-53.125c29.409,0,53.313,23.831,53.313,53.125
			C124.318,130.301,100.403,154.125,71.006,154.125z"/>
	</g>
</g>
</svg>
