<?xml version="1.0" encoding="utf-8"?>
<!-- Generator: Adobe Illustrator 16.0.0, SVG Export Plug-In . SVG Version: 6.00 Build 0)  -->
<!DOCTYPE svg PUBLIC "-//W3C//DTD SVG 1.1//EN" "http://www.w3.org/Graphics/SVG/1.1/DTD/svg11.dtd">
<svg version="1.1" id="Layer_1" xmlns="http://www.w3.org/2000/svg" xmlns:xlink="http://www.w3.org/1999/xlink" x="0px" y="0px"
	 width="60px" height="60px" viewBox="370 610 60 60" enable-background="new 370 610 60 60" xml:space="preserve">
<g>
	<circle fill="none" stroke="#FBB03B" stroke-width="4" stroke-miterlimit="10" cx="399.929" cy="639.929" r="27.5"/>
	<g>
		<path fill="#FBAF3B" d="M385.444,628.149c0.497,3.232,0.995,3.979,0.995,7.212c0,1.989-3.73,3.73-3.73,3.73v2.486
			c0,0,3.73,1.742,3.73,3.731c0,3.232-0.498,3.978-0.995,7.212c-0.747,5.222,1.99,7.709,4.475,7.709c2.488,0,5.224,0,5.224,0v-4.974
			c0,0-4.476,0.498-4.476-2.487c0-2.24,0.496-2.24,0.994-7.213c0.249-2.236-1.244-3.979-2.736-5.222
			c1.492-1.243,2.985-2.735,2.736-4.973c-0.747-4.974-0.994-4.974-0.994-7.212c0-2.984,4.476-2.735,4.476-2.735v-4.974
			c0,0-2.487,0-5.224,0C387.184,620.44,384.697,622.927,385.444,628.149z"/>
		<path fill="#FBAF3B" d="M414.789,628.149c-0.497,3.232-0.995,3.979-0.995,7.212c0,1.989,3.731,3.73,3.731,3.73v2.486
			c0,0-3.731,1.742-3.731,3.731c0,3.232,0.498,3.978,0.995,7.212c0.747,5.222-1.99,7.709-4.477,7.709c-2.488,0-5.223,0-5.223,0
			v-4.974c0,0,4.477,0.498,4.477-2.487c0-2.24-0.5-2.24-0.993-7.213c-0.251-2.236,1.242-3.979,2.733-5.222
			c-1.491-1.243-2.984-2.735-2.733-4.973c0.493-4.974,0.993-4.974,0.993-7.212c0-2.984-4.477-2.735-4.477-2.735v-4.974
			c0,0,2.487,0,5.223,0C413.049,620.44,415.536,622.927,414.789,628.149z"/>
	</g>
</g>
</svg>
