<?xml version="1.0" encoding="utf-8"?>
<!-- Generator: Adobe Illustrator 16.0.0, SVG Export Plug-In . SVG Version: 6.00 Build 0)  -->
<!DOCTYPE svg PUBLIC "-//W3C//DTD SVG 1.1//EN" "http://www.w3.org/Graphics/SVG/1.1/DTD/svg11.dtd">
<svg version="1.1" id="Layer_1" xmlns="http://www.w3.org/2000/svg" xmlns:xlink="http://www.w3.org/1999/xlink" x="0px" y="0px"
	 width="80px" height="80px" viewBox="0 0 80 80" enable-background="new 0 0 80 80" xml:space="preserve">
<g>
	<rect fill="#7E8384" width="80" height="80"/>
	<path fill="#FFFFFF" d="M64.383,27.274c-1.704,0.736-3.537,1.23-5.461,1.454c1.966-1.143,3.472-2.949,4.181-5.105
		c-1.838,1.06-3.872,1.828-6.037,2.239c-1.734-1.791-4.203-2.91-6.938-2.91c-5.245,0-9.501,4.126-9.501,9.221
		c0,0.724,0.082,1.428,0.247,2.104c-7.899-0.386-14.903-4.059-19.587-9.638c-0.82,1.362-1.288,2.945-1.288,4.636
		c0,3.198,1.677,6.025,4.226,7.676c-1.56-0.048-3.022-0.461-4.306-1.156v0.118c0,4.469,3.275,8.196,7.625,9.044
		c-0.797,0.209-1.637,0.324-2.503,0.324c-0.612,0-1.208-0.057-1.788-0.165c1.209,3.665,4.719,6.332,8.88,6.404
		c-3.252,2.477-7.351,3.95-11.804,3.95c-0.769,0-1.524-0.044-2.27-0.131c4.209,2.618,9.203,4.147,14.571,4.147
		c17.482,0,27.042-14.06,27.042-26.247l-0.025-1.195C61.497,30.751,63.107,29.126,64.383,27.274z"/>
</g>
</svg>
