<?xml version="1.0" encoding="utf-8"?>
<!-- Generator: Adobe Illustrator 16.0.0, SVG Export Plug-In . SVG Version: 6.00 Build 0)  -->
<!DOCTYPE svg PUBLIC "-//W3C//DTD SVG 1.1//EN" "http://www.w3.org/Graphics/SVG/1.1/DTD/svg11.dtd">
<svg version="1.1" id="Layer_1" xmlns="http://www.w3.org/2000/svg" xmlns:xlink="http://www.w3.org/1999/xlink" x="0px" y="0px"
	 width="80px" height="80px" viewBox="0 0 80 80" enable-background="new 0 0 80 80" xml:space="preserve">
<g>
	<rect fill="#2B414D" width="80" height="80"/>
	<g>
		<path fill="#FFFFFF" d="M40,1C18.462,1,1,18.462,1,40c0,21.54,17.462,39,39,39c21.537,0,39-17.46,39-39C79,18.462,61.537,1,40,1z
			 M50.925,69.711c-0.225-3.053-0.476-6.833-0.49-8.363c-0.097-1.176-0.225-4.163-3.062-6.072
			c11.264-0.942,16.624-7.168,17.009-15.395c0.321-4.685-1.541-8.804-4.848-12.129c0.168-3.556-0.107-7.771-0.337-9.623
			c-2.539-0.731-8.463,2.396-10.117,3.734c-3.491-1.355-12.035-1.83-17.226,0c-3.681-2.589-7.871-4.188-10.155-3.742
			c-2.108,4.673-0.753,9.09-0.341,9.616c-2.715,2.481-6.503,5.536-5.475,11.934c1.651,9.382,8.251,14.442,18.879,15.681
			c-2.267,0.464-2.65,2.154-2.84,2.889c-7.137,2.944-9.177-1.818-10.079-3.06c-2.996-3.707-5.684-2.632-5.85-2.573
			c-0.162,0.058-0.283,0.291-0.266,0.403c0.151,0.8,1.781,1.612,1.862,1.678c2.211,1.647,3.03,4.624,3.534,5.473
			c3.171,5.214,10.542,3.052,10.613,3.095c0.005,0.455-0.051,4.293-0.095,7.278C18.202,66.864,8.313,54.604,8.313,40
			C8.313,22.499,22.499,8.313,40,8.313c17.5,0,31.688,14.186,31.688,31.687C71.688,53.656,63.034,65.257,50.925,69.711z"/>
	</g>
</g>
</svg>
