<?xml version="1.0" encoding="utf-8"?>
<!-- Generator: Adobe Illustrator 16.0.0, SVG Export Plug-In . SVG Version: 6.00 Build 0)  -->
<!DOCTYPE svg PUBLIC "-//W3C//DTD SVG 1.1//EN" "http://www.w3.org/Graphics/SVG/1.1/DTD/svg11.dtd">
<svg version="1.1" id="Layer_1" xmlns="http://www.w3.org/2000/svg" xmlns:xlink="http://www.w3.org/1999/xlink" x="0px" y="0px"
	 width="200px" height="200px" viewBox="0 0 200 200" enable-background="new 0 0 200 200" xml:space="preserve">
<g>
	<g>
		<path fill-rule="evenodd" clip-rule="evenodd" fill="#F6EFE4" d="M11.25,200.25c-7.602,1.656-9.283-1.182-9.229-8.934
			C2.437,131.166,2.35,71.011,2.107,10.86c-0.026-6.515,0.816-8.983,8.351-8.839C39.963,2.583,69.484,2.25,99,2.25
			c0.06,6.435-5.634,7.264-9.605,9.291c-22.68,11.574-45.506,22.865-68.276,34.263c-2.678,1.34-5.4,2.596-7.922,4.231
			c-3.934,2.55-4.108,5.907-2.123,9.736c1.938,3.735,4.966,4.386,8.493,2.64c7.379-3.651,15.486-5.943,22.225-10.726
			c16.005-11.361,34.354-18.238,51.421-27.548c6.614-3.607,12.872-3.203,19.156,0.521c15.768,9.344,32.855,16.292,48.001,26.803
			c6.766,4.696,14.408,7.965,22.103,10.957c3.679,1.429,7.335,2.433,9.492-2.354c2.125-4.713,1.723-8.731-3.201-11.506
			c-3.608-2.033-7.622-3.121-11.329-4.912c-22.256-10.75-44.297-21.932-66.326-33.135c-3.329-1.694-8.223-2.64-7.607-8.262
			c30.375,0,60.752,0.142,91.123-0.145c4.838-0.045,5.783,0.939,5.768,5.77c-0.213,62.25-0.343,124.502,0.077,186.748
			c0.063,9.297-5.733,4.528-9.218,5.627c-4.82-5.291-3.881-11.885-3.969-18.174c-0.287-20.544-0.232-20.56-21.225-20.564
			c-38.6-0.011-77.198,0-115.796-0.008c-4.122,0-8.252,0.134-12.362-0.209c-10.863-0.908-13.917-3.707-14.622-14.498
			c-0.734-11.219,0.126-22.493-0.415-33.713c-0.291-6.035,2.223-16.898-3.592-16.831c-7.22,0.088-3.69,10.417-3.808,16.125
			c-0.495,23.975-0.141,47.965-0.251,71.947C15.186,189.918,15.529,195.68,11.25,200.25z"/>
		<path fill-rule="evenodd" clip-rule="evenodd" fill="#692917" d="M11.25,200.25c-0.13-34.427-0.251-68.855-0.396-103.282
			c-0.021-4.868,0.717-9.22,6.843-9.51c6.588-0.313,8.24,3.971,8.249,9.455c0.026,16.47,0.646,32.976-0.259,49.397
			c-0.541,9.809,2.928,11.489,11.905,11.405c47.907-0.447,95.824,0.01,143.73-0.412c8.335-0.073,11.162,1.885,10.471,10.426
			c-0.875,10.784-0.422,21.676-0.543,32.521c-5.249,0-10.501,0-15.75,0c-3.709-3.834-3.936-8.787-4.01-13.616
			c-0.102-6.638-3.401-9.26-9.773-9.292c-40.312-0.203-80.622-0.203-120.934,0c-6.371,0.032-9.672,2.654-9.774,9.292
			c-0.073,4.829-0.299,9.782-4.009,13.616C21.75,200.25,16.5,200.25,11.25,200.25z"/>
		<path fill-rule="evenodd" clip-rule="evenodd" fill="#682715" d="M103.5,2.25c27.615,15.59,56.406,28.854,84.793,42.916
			c10.834,5.367,11.99,13.619,3.526,22.149c-3.437,3.462-5.458,0.101-7.646-0.891c-25.356-11.497-48.331-27.499-73.698-39.066
			c-6.386-2.912-11.354-3.474-17.662-0.035c-23.761,12.952-47.907,25.2-71.649,38.187c-6.581,3.6-9.822,3.608-13.186-4.017
			c-3.17-7.186-4.729-11.153,4.351-15.347C38.093,34.248,63.354,21.252,88.717,8.495C92.266,6.71,96.555,5.926,99,2.25
			C100.501,2.25,101.999,2.25,103.5,2.25z"/>
		<path fill-rule="evenodd" clip-rule="evenodd" fill="#F8F0E5" d="M27,200.25c-4.193-28.059-4.193-28.059,23.117-28.057
			c38.581,0.006,77.164,0.224,115.739-0.156c8.062-0.081,12.025,1.633,10.753,10.417c-0.85,5.874,0.963,11.962-1.109,17.796
			C126,200.25,76.5,200.25,27,200.25z"/>
		<path fill-rule="evenodd" clip-rule="evenodd" fill="#682715" d="M114.59,144.345c-22.86,0-45.721,0.011-68.58-0.009
			c-4.859-0.004-10.715,0.726-10.56-6.525c0.144-6.667,5.459-7.066,10.632-6.924c1.498,0.042,2.997,0.009,4.497,0.007
			c17.381-0.022,17.589-0.009,18.704-17.666c0.396-6.273,2.777-8.741,9.052-8.112c34.267,3.426,68.567,6.504,102.806,10.193
			c9.227,0.995,16.314,20.293,10.549,27.485c-2.141,2.667-5.625,1.498-8.521,1.509C160.309,144.376,137.447,144.343,114.59,144.345z
			"/>
		<path fill-rule="evenodd" clip-rule="evenodd" fill="#692917" d="M61.93,110.89c-0.86,8.202-4.752,13.298-13.588,13.216
			c-8.664-0.076-13.398-4.774-13.366-13.198c0.033-8.398,5.089-13.516,13.387-13.535C56.681,97.352,61.207,102.524,61.93,110.89z"/>
	</g>
</g>
</svg>
