<?xml version="1.0" encoding="utf-8"?>
<!-- Generator: Adobe Illustrator 16.0.0, SVG Export Plug-In . SVG Version: 6.00 Build 0)  -->
<!DOCTYPE svg PUBLIC "-//W3C//DTD SVG 1.1//EN" "http://www.w3.org/Graphics/SVG/1.1/DTD/svg11.dtd">
<svg version="1.1" id="Capa_1" xmlns="http://www.w3.org/2000/svg" xmlns:xlink="http://www.w3.org/1999/xlink" x="0px" y="0px"
	 width="80px" height="80px" viewBox="360 110 80 80" enable-background="new 360 110 80 80" xml:space="preserve">
<g>
	<path fill="#E2574C" d="M370.955,168.756c-5.857,0-10.622,4.765-10.622,10.621c0,5.857,4.765,10.623,10.622,10.623
		s10.623-4.766,10.623-10.623C381.577,173.521,376.812,168.756,370.955,168.756z"/>
	<path fill="#E2574C" d="M429.377,168.756c-5.855,0-10.621,4.765-10.621,10.621c0,5.857,4.766,10.623,10.621,10.623
		c5.857,0,10.623-4.766,10.623-10.623C440,173.521,435.234,168.756,429.377,168.756z"/>
	<path fill="#E2574C" d="M400.166,168.756c-5.857,0-10.622,4.765-10.622,10.621c0,5.857,4.765,10.623,10.622,10.623
		c5.857,0,10.623-4.766,10.623-10.623C410.789,173.521,406.023,168.756,400.166,168.756z"/>
</g>
</svg>
