<?xml version="1.0" encoding="utf-8"?>
<!-- Generator: Adobe Illustrator 16.0.0, SVG Export Plug-In . SVG Version: 6.00 Build 0)  -->
<!DOCTYPE svg PUBLIC "-//W3C//DTD SVG 1.1//EN" "http://www.w3.org/Graphics/SVG/1.1/DTD/svg11.dtd">
<svg version="1.1" id="Layer_1" xmlns="http://www.w3.org/2000/svg" xmlns:xlink="http://www.w3.org/1999/xlink" x="0px" y="0px"
	 width="200px" height="200px" viewBox="0 0 200 200" enable-background="new 0 0 200 200" xml:space="preserve">
<g>
	<rect x="13.627" y="14.125" fill="#F7941E" width="172.998" height="172.5"/>
	<path fill="#FFFFFF" d="M120.833,41.668H50v116.667h16.667v-41.666h54.167c20.834,0,37.5-16.669,37.5-37.501
		C158.333,58.335,141.667,41.668,120.833,41.668L120.833,41.668z M120.833,100H66.667V58.333h54.167
		c11.666,0,20.834,9.167,20.834,20.833C141.667,90.834,132.499,100,120.833,100z"/>
	<path fill="#414042" d="M175,0H25C10.832,0,0,10.834,0,25v150.002C0,189.166,10.832,200,25,200h150c14.164,0,25-10.834,25-24.998
		V25C200,10.834,189.164,0,175,0z M183.333,175.002c0,4.999-3.332,8.331-8.333,8.331H25c-5.001,0-8.333-3.332-8.333-8.331V25
		c0-5,3.333-8.332,8.333-8.332h150c5.001,0,8.333,3.333,8.333,8.332V175.002z"/>
</g>
</svg>
