<?xml version="1.0" encoding="utf-8"?>
<!-- Generator: Adobe Illustrator 16.0.0, SVG Export Plug-In . SVG Version: 6.00 Build 0)  -->
<!DOCTYPE svg PUBLIC "-//W3C//DTD SVG 1.1//EN" "http://www.w3.org/Graphics/SVG/1.1/DTD/svg11.dtd">
<svg version="1.1" id="Layer_1" xmlns="http://www.w3.org/2000/svg" xmlns:xlink="http://www.w3.org/1999/xlink" x="0px" y="0px"
	 width="80px" height="80px" viewBox="0 0 80 80" enable-background="new 0 0 80 80" xml:space="preserve">
<g>
	<rect fill="#FFFFFF" width="80" height="80"/>
	<g>
		<path fill="#349886" d="M0.846,4.926C0.641,5.586,0.5,6.299,0.5,7.114V74.1c0,0.804,0.141,1.509,0.338,2.161L41.91,40.644
			L0.846,4.926z"/>
		<path fill="#3DB39E" d="M57.937,26.741L9.983,2.324C8.072,1.259,6.19,0.99,4.6,1.361l41.244,35.873L57.937,26.741z"/>
		<path fill="#F4B459" d="M75.618,35.745l-12.799-6.518l-13.11,11.367l13.354,11.62l12.452-6.26
			C81.594,42.781,79.377,37.677,75.618,35.745z"/>
		<path fill="#E2574C" d="M4.479,79.812c1.614,0.413,3.542,0.166,5.503-0.926l48.1-24.176L45.769,44.002L4.479,79.812z"/>
	</g>
</g>
</svg>
