<?xml version="1.0" encoding="utf-8"?>
<!-- Generator: Adobe Illustrator 16.0.0, SVG Export Plug-In . SVG Version: 6.00 Build 0)  -->
<!DOCTYPE svg PUBLIC "-//W3C//DTD SVG 1.1//EN" "http://www.w3.org/Graphics/SVG/1.1/DTD/svg11.dtd">
<svg version="1.1" id="Layer_1" xmlns="http://www.w3.org/2000/svg" xmlns:xlink="http://www.w3.org/1999/xlink" x="0px" y="0px"
	 width="200px" height="200px" viewBox="0 0 200 200" enable-background="new 0 0 200 200" xml:space="preserve">
<g>
	<path fill="#ED8A19" d="M152.779,200.001c-1.874,0-3.39-1.516-3.39-3.39c0-1.875,1.516-3.39,3.39-3.39h6.543
		c1.875,0,3.508,1.515,3.508,3.387c0,1.874-1.396,3.389-3.271,3.389v-3.389l-0.099,3.389L152.779,200.001z M139.221,200.001h-6.779
		c-1.875,0-3.391-1.516-3.391-3.39c0-1.875,1.516-3.39,3.391-3.39h6.779c1.874,0,3.39,1.515,3.39,3.39
		C142.61,198.485,141.095,200.001,139.221,200.001z M118.881,200.001h-6.779c-1.875,0-3.39-1.516-3.39-3.39
		c0-1.875,1.515-3.39,3.39-3.39h6.779c1.875,0,3.391,1.515,3.391,3.39C122.271,198.485,120.756,200.001,118.881,200.001z
		 M98.542,200.001h-6.78c-1.875,0-3.39-1.516-3.39-3.39c0-1.875,1.515-3.39,3.39-3.39h6.78c1.875,0,3.389,1.515,3.389,3.39
		C101.932,198.485,100.417,200.001,98.542,200.001z M78.204,200.001h-6.78c-1.875,0-3.39-1.516-3.39-3.39
		c0-1.875,1.516-3.39,3.39-3.39h6.78c1.875,0,3.39,1.515,3.39,3.39C81.593,198.485,80.078,200.001,78.204,200.001z M57.864,200.001
		h-6.779c-1.875,0-3.39-1.516-3.39-3.39c0-1.875,1.515-3.39,3.39-3.39h6.779c1.875,0,3.39,1.515,3.39,3.39
		C61.254,198.485,59.739,200.001,57.864,200.001z M171.313,194.177c-0.732,0-1.472-0.236-2.092-0.725
		c-1.475-1.16-1.726-3.292-0.57-4.76c1.102-1.4,1.857-2.99,2.248-4.719c0.41-1.826,2.224-2.973,4.051-2.563s2.973,2.224,2.563,4.051
		c-0.604,2.686-1.824,5.251-3.532,7.417C173.313,193.733,172.318,194.177,171.313,194.177z M171.315,175.319
		c-1.007,0-2-0.443-2.668-1.295c-1.085-1.379-2.488-2.521-4.058-3.301c-1.675-0.834-2.359-2.868-1.525-4.547
		c0.834-1.674,2.861-2.362,4.546-1.525c2.464,1.225,4.664,3.018,6.369,5.18c1.156,1.472,0.905,3.604-0.569,4.76
		C172.79,175.079,172.047,175.319,171.315,175.319z M152.783,169.493h-6.779c-1.875,0-3.391-1.516-3.391-3.391
		s1.516-3.39,3.391-3.39h6.779c1.875,0,3.39,1.515,3.39,3.39S154.658,169.493,152.783,169.493z M132.443,169.493h-6.779
		c-1.874,0-3.39-1.516-3.39-3.391s1.516-3.39,3.39-3.39h6.779c1.875,0,3.391,1.515,3.391,3.39S134.318,169.493,132.443,169.493z
		 M112.302,168.116c-0.472,0-0.949-0.098-1.407-0.309c-2.494-1.139-4.752-2.861-6.531-4.973c-1.204-1.434-1.021-3.572,0.413-4.776
		c1.434-1.203,3.569-1.021,4.776,0.413c1.132,1.346,2.572,2.444,4.162,3.174c1.702,0.775,2.451,2.786,1.672,4.491
		C114.816,167.381,113.59,168.116,112.302,168.116z M103.661,151.356c-0.214,0-0.427-0.02-0.641-0.061
		c-1.841-0.353-3.041-2.133-2.692-3.97c0.525-2.742,1.639-5.274,3.299-7.532c1.111-1.508,3.23-1.826,4.739-0.722
		c1.509,1.112,1.831,3.233,0.722,4.739c-1.061,1.438-1.766,3.047-2.098,4.789C106.675,150.228,105.254,151.356,103.661,151.356z
		 M117.912,139.001c-1.807,0-3.313-1.428-3.383-3.251c-0.075-1.871,1.376-3.45,3.247-3.525c0.288-0.014,0.576-0.021,0.868-0.021
		h6.051c1.874,0,3.39,1.516,3.39,3.391c0,1.874-1.516,3.389-3.39,3.389l-6.641,0.014
		C118.007,139.001,117.959,139.001,117.912,139.001z M179.661,138.983h-0.729c-1.874,0-3.389-1.515-3.389-3.389
		c0-1.875,1.515-3.391,3.389-3.391h0.729c1.59,0,3.129-0.309,4.583-0.918c1.712-0.729,3.712,0.084,4.438,1.813
		c0.725,1.727-0.085,3.713-1.814,4.438C184.58,138.496,182.156,138.983,179.661,138.983z M165.373,138.983h-6.779
		c-1.875,0-3.391-1.515-3.391-3.389c0-1.875,1.516-3.391,3.391-3.391h6.779c1.875,0,3.39,1.516,3.39,3.391
		C168.763,137.469,167.248,138.983,165.373,138.983z M145.033,138.983h-6.779c-1.874,0-3.39-1.515-3.39-3.389
		c0-1.875,1.516-3.391,3.39-3.391h6.779c1.875,0,3.391,1.516,3.391,3.391C148.424,137.469,146.908,138.983,145.033,138.983z
		 M194.299,128.034c-0.316,0-0.638-0.043-0.953-0.135c-1.797-0.525-2.827-2.41-2.302-4.207c0.319-1.084,0.481-2.21,0.481-3.35
		c0.007-0.65-0.047-1.268-0.143-1.871c-0.298-1.848,0.959-3.59,2.811-3.885c1.84-0.305,3.586,0.96,3.885,2.811
		c0.159,0.993,0.234,1.993,0.227,2.97c0,1.759-0.25,3.525-0.752,5.23C197.119,127.075,195.766,128.034,194.299,128.034z
		 M187.288,110.522c-0.576,0-1.163-0.145-1.698-0.457c-1.535-0.892-3.21-1.414-4.982-1.553c-1.869-0.146-3.262-1.776-3.115-3.645
		c0.145-1.871,1.782-3.25,3.644-3.115c2.79,0.218,5.437,1.045,7.854,2.448c1.62,0.938,2.172,3.017,1.23,4.634
		C189.597,109.916,188.457,110.522,187.288,110.522z M167.313,108.476h-6.78c-1.874,0-3.39-1.516-3.39-3.39
		c0-1.875,1.516-3.39,3.39-3.39h6.78c1.874,0,3.389,1.515,3.389,3.39C170.701,106.96,169.187,108.476,167.313,108.476z
		 M146.973,108.476h-6.779c-1.875,0-3.391-1.516-3.391-3.39c0-1.875,1.516-3.39,3.391-3.39h6.779c1.875,0,3.391,1.515,3.391,3.39
		C150.363,106.96,148.848,108.476,146.973,108.476z M126.634,108.476h-6.78c-1.874,0-3.389-1.516-3.389-3.39
		c0-1.875,1.515-3.39,3.389-3.39h6.78c1.874,0,3.39,1.515,3.39,3.39C130.023,106.96,128.508,108.476,126.634,108.476z
		 M106.295,108.476h-1.21c-2.298-0.004-4.532-0.417-6.654-1.224c-1.75-0.668-2.624-2.628-1.959-4.376
		c0.671-1.753,2.64-2.621,4.376-1.96c1.35,0.516,2.775,0.776,4.244,0.78h1.203c1.875,0,3.39,1.515,3.39,3.39
		C109.685,106.96,108.17,108.476,106.295,108.476z M90.59,97.984c-1.424,0-2.752-0.905-3.22-2.332
		c-0.617-1.871-0.926-3.831-0.926-5.824c0.003-0.807,0.055-1.59,0.149-2.353c0.23-1.851,1.871-3.156,3.787-2.939
		c1.857,0.23,3.176,1.929,2.939,3.787c-0.064,0.498-0.092,1.01-0.095,1.522c0,1.254,0.2,2.498,0.59,3.688
		c0.583,1.776-0.383,3.695-2.163,4.281C91.298,97.933,90.939,97.984,90.59,97.984z M97.044,80.259c-1.132,0-2.237-0.566-2.881-1.597
		c-0.99-1.59-0.505-3.682,1.082-4.671c2.373-1.481,4.99-2.383,7.776-2.691c1.874-0.193,3.536,1.139,3.742,3
		c0.207,1.861-1.14,3.536-3,3.742c-1.767,0.197-3.427,0.77-4.929,1.705C98.274,80.092,97.658,80.259,97.044,80.259z M144.068,77.967
		h-6.78c-1.874,0-3.39-1.516-3.39-3.39s1.516-3.39,3.39-3.39h6.78c1.874,0,3.389,1.515,3.389,3.39S145.942,77.967,144.068,77.967z
		 M123.729,77.967h-6.779c-1.875,0-3.39-1.516-3.39-3.39s1.515-3.39,3.39-3.39h6.779c1.875,0,3.391,1.515,3.391,3.39
		S125.604,77.967,123.729,77.967z"/>
	<path fill="#26B99A" d="M181.254,9.048L181.254,9.048c-10.701-12.064-28.054-12.064-38.756,0l0,0
		c-10.701,12.064-10.701,31.621,0,43.685l19.377,21.844l19.376-21.844C191.956,40.672,191.956,21.113,181.254,9.048z
		 M162.712,44.069c-8.424,0-15.255-6.831-15.255-15.254s6.831-15.254,15.255-15.254s15.255,6.83,15.255,15.254
		S171.136,44.069,162.712,44.069z"/>
	<path fill="#3083C9" d="M65.349,97.086c-14.563-16.451-38.173-16.451-52.732,0l0,0c-14.563,16.45-14.563,43.122,0,59.569
		l26.366,29.786l26.366-29.786C79.912,140.204,79.912,113.533,65.349,97.086z M38.983,138.983c-9.359,0-16.949-7.59-16.949-16.949
		c0-9.358,7.59-16.948,16.949-16.948s16.949,7.59,16.949,16.948C55.932,131.394,48.342,138.983,38.983,138.983z"/>
</g>
</svg>
